<svg width="59" height="168" viewBox="0 0 59 168" fill="none" xmlns="http://www.w3.org/2000/svg">
<path d="M57.5065 56.3999H41.0762V21.0689C41.0762 19.1241 35.1015 15.5586 29.5002 15.5586C24.216 15.5586 17.1772 18.1517 17.1772 21.0689C17.1772 23.9862 17.5508 143.269 17.5508 145.862C17.5508 148.455 22.7785 152.344 29.5002 152.344C36.2219 152.344 41.4496 147.482 41.4496 145.862V104.048H28.0063V90.4343H59V166.931C59 166.931 57.1331 168.227 56.3863 166.931C55.6395 165.634 52.7447 161.85 50.4114 158.179C50.4114 158.179 46.3015 163.078 42.5698 164.986C38.0585 167.292 29.5002 167.579 29.5002 167.579C4.10778 167.579 0 149.751 0 145.862V17.5034C0 17.5034 5.69791e-06 -2.44399e-05 28.0063 0C56.0127 2.44399e-05 57.5065 17.5034 57.5065 17.5034V56.3999Z" fill="#B72F31"/>
</svg>
